<svg xmlns="http://www.w3.org/2000/svg" viewBox="0 0 350 200"><circle fill="#EDF1F9" cx="174.52" cy="108" r="85.5"/><path fill="#EDF1F9" d="M46.02 136.97h46.8V175h-46.8z"/><path fill="#FFF" d="M78.53 103.92H180v70.91H78.53z"/><path fill="#EDF1F9" d="M180 174.82c-.04.01-23.82 0-25.47 0-6.87 0-13.79-.2-20.65.01.16-2.87.62-5.83 1.76-8.52 2.51-5.92 8.42-9.7 14.42-12.01 8.2-3.17 7.98-11.3 6.17-16.26-3.55-9.74.9-13.36 6.15-18.41 4.74-4.55-.79-15.28-.87-15.72H180v70.91z"/><path fill="#0B0D2A" d="M77.18 175c-.12-4.21-.19-8.42-.08-12.63.09-2.11.16-4.21.21-6.32.05-1.05.02-2.11 0-3.16l-.06-3.16c-.16-4.21-.08-8.42.05-12.63.03-1.05 0-2.11 0-3.16l-.12-3.16c-.05-1.05-.03-2.11-.03-3.16 0-1.05 0-2.11.03-3.16.02-.75.65-1.33 1.39-1.31.71.02 1.27.59 1.31 1.28v.02c.19 4.21.2 8.42.06 12.63.02 4.21.03 8.42-.14 12.63-.04 2.11-.16 4.21-.13 6.32l.08 6.32c.04 2.11-.09 4.21-.1 6.32-.05 1.05.05 2.11.07 3.16.03 1.05.07 2.11.17 3.16.07.74-.48 1.4-1.22 1.47-.74.07-1.4-.48-1.47-1.22 0-.03 0-.06-.01-.08l-.01-.16zm0-58.79l-.1-2.98c-.05-.99-.04-1.98-.03-2.98.01-.99-.01-1.98.03-2.98l.15-2.98v-.07c.04-.69.61-1.23 1.3-1.23 8.46.03 16.91.12 25.37.11l25.37-.1 25.37-.09 25.37.1h.01c.7 0 1.27.57 1.27 1.28l-.06 16.08c0 5.36.03 10.72.09 16.08.05 5.36.1 10.72.07 16.08l-.02 16.08c0 .75-.61 1.35-1.35 1.35-.74 0-1.34-.6-1.35-1.34v-.01l-.12-16.08c-.06-5.36-.05-10.72-.03-16.08 0-5.36.02-10.72.07-16.08l.02-16.08 1.41 1.41h-25.37l-25.37-.13-25.37-.13-25.37.03 1.17-1.17.06 2.98c.01.99-.06 1.98-.08 2.98-.03.99-.07 1.99.01 2.98.05.99.07 1.99.2 2.98.1.74-.43 1.42-1.17 1.52-.74.1-1.42-.43-1.52-1.17-.01-.04-.01-.09-.01-.13l-.02-.23z"/><path fill="#0B0D2A" d="M178.34 105.81c-3.75-.53-7.48-1.11-11.19-1.87-1.85-.41-3.7-.8-5.55-1.18-.92-.21-1.86-.35-2.79-.49l-2.8-.43c-3.75-.49-7.46-1.22-11.16-2-.93-.2-1.86-.32-2.79-.48l-2.83-.36c-.94-.11-1.87-.3-2.8-.45-.93-.16-1.86-.32-2.79-.52-.73-.15-1.2-.87-1.04-1.6.15-.69.79-1.15 1.48-1.06h.03c3.76.46 7.48 1.1 11.18 1.89 3.73.62 7.45 1.27 11.15 2.09 1.86.36 3.7.81 5.56 1.1l5.6.89c1.87.28 3.71.74 5.57 1.07.92.21 1.87.28 2.8.42.94.14 1.87.26 2.82.32.75.05 1.31.7 1.26 1.44-.05.75-.7 1.31-1.44 1.26-.03 0-.06-.01-.09-.01l-.18-.03z"/><path fill="#46C0C0" d="M201.79 105.03c-1.78-1.39-4.05-2.17-5.9-3.5-3.12-2.23-4.92-5.84-7.52-8.65-4.71-5.08-11.68-7.24-18.32-9.2-1.85.76-2.36 3.12-2.43 5.12-.26 7.59 2.2 17.53 8.21 22.57 2.16 1.81 4.76 3.19 6.37 5.5.7 1.01 1.18 2.16 1.89 3.17 1.75 2.51 4.76 3.93 7.78 4.42 4.58.74 12.04.84 13.77-4.66.62-1.98.31-4.12-.01-6.17-.42-2.69-.92-5.53-2.72-7.56-.35-.39-.72-.73-1.12-1.04zm-.59-98.32c-13.07-2.81-11.82 23-10.38 29.67.98 4.53 2.95 8.95 2.72 13.58-.17 3.53-1.62 6.88-2.04 10.39-1.22 10.29 6.44 19.47 14.53 25.96 1.98 1.59 4.15 3.17 6.67 3.51 10.03 1.34 16.31-18.29 14.54-25.54-.65-2.66-2.01-5.14-2.45-7.84-.68-4.17.87-8.35 1.07-12.57.43-9.24-5.57-16.39-11.77-22.42-3.84-3.76-7.6-13.6-12.89-14.74zm34.57 57.16c3.49-13.22 17.62-11.97 24.57-21.5 1.17-1.6 1.86-3.52 3-5.14 2.5-3.54 7.26-5.3 11.47-4.26 1.19.29 2.37.83 3.09 1.82.54.74.76 1.66.97 2.55 2.91 12.44 3.35 26.31-8.99 33.91-1.95 1.2-4.09 2.13-5.8 3.65-5.85 5.19-2.99 12.36-13 14.99-4.06 1.07-8.33.94-12.53.8-1.6-.05-3.26-.12-4.66-.9-1.96-1.09-3-3.4-3.14-5.65-.39-6.13 3.44-13.46 4.81-19.43.06-.27.13-.55.21-.84z"/><path fill="none" stroke="#F4F6F8" stroke-miterlimit="10" d="M255.4 67.58c6.46-.31 14.93-.42 21.38-.33m-29.69 6c6.62-.31 15.24-.42 21.86-.32"/><path fill="none" stroke="#EDF1F9" stroke-miterlimit="10" d="M213.42 76.87l-22.01-13.26m-.47-10.75c6.59 4.55 15.73 11.51 21.56 15.7m-.85-10.81c4.65-5.29 9.4-11.58 14.03-17.66m-16.59 12.89c.3-.43.59-.87.88-1.32 4.25-6.37 8.24-13.53 12.43-20.31m23.27 40.91c.47-7.58 1.36-17.1 2.09-24.03m-8.57 5.06c-.48 7.19 1.04 16.39.55 23.59m-43.35 22.28c.71 4 .46 10.07 1.04 13.81m-8.15-21.03c1.01 4.53 1.88 11.38 2.37 15.32m17.58-56.02c-6.37-6.54-14.72-14.31-21.08-20.98"/><path fill="#0B0D2A" d="M210.66 160.74c-.55-5.26-.57-10.56-1.2-15.86-.2-5.33.33-10.66 1-15.94.34-2.65.84-5.27 1.48-7.86.32-1.29.64-2.59 1.02-3.87.39-1.28.83-2.54 1.26-3.8.45-1.26.83-2.53 1.29-3.78.47-1.24 1-2.47 1.56-3.68.57-1.2 1.18-2.39 1.79-3.57.61-1.18 1.2-2.38 1.88-3.53 1.37-2.29 2.94-4.45 4.56-6.55.84-1.03 1.63-2.1 2.38-3.2.77-1.09 1.67-2.08 2.54-3.07 1.76-1.99 3.62-3.89 5.53-5.74 1.93-1.82 3.76-3.73 5.89-5.41 1.08-.81 2.18-1.57 3.29-2.3l1.67-1.09 1.63-1.13c2.19-1.48 4.31-3.01 6.43-4.5 4.42-2.76 7.87-6.78 10.15-11.27.3-.58 1.01-.81 1.59-.52.58.29.81 1.01.52 1.59v.01l-.02.03c-1.27 2.43-2.87 4.69-4.74 6.69-.93 1-1.9 1.96-2.91 2.86-.99.93-2 1.83-3.03 2.7-1.05.85-2.17 1.57-3.28 2.31-1.11.74-2.23 1.43-3.34 2.13-2.24 1.37-4.36 2.88-6.42 4.43-2.05 1.52-4.14 3.16-5.96 5.03-1.87 1.82-3.61 3.78-5.34 5.72-.89.95-1.66 2-2.63 2.87-.48.44-.97.88-1.41 1.36-.42.5-.8 1.03-1.17 1.56-1.51 2.12-2.72 4.42-4.01 6.63-.66 1.1-1.43 2.15-2.04 3.29l-.84 1.74c-.27.59-.51 1.19-.76 1.78-.51 1.19-1.01 2.38-1.46 3.59-.51 1.19-.97 2.4-1.34 3.64-.33 1.25-.52 2.55-.86 3.79l-.55 1.86c-.19.62-.4 1.24-.58 1.86-.18.62-.34 1.26-.51 1.89-.13.64-.22 1.28-.32 1.93-.2 1.29-.56 2.55-.77 3.84-.55 2.56-.77 5.18-.79 7.8-.05 2.62.06 5.23.12 7.85-.25 5.24.55 10.46 1.06 15.68.06.65-.41 1.23-1.06 1.29-.65.06-1.22-.41-1.29-1.05l-.01-.03z"/><path fill="#0B0D2A" d="M213.46 115.52c.34-3.77 1.1-7.54.64-11.36-.06-1.9.06-3.79.1-5.69 0-1.9.08-3.8.02-5.7l-.1-2.85c-.02-.95 0-1.91-.04-2.86-.1-1.9-.15-3.81-.2-5.72-.03-.96-.18-1.9-.29-2.85-.12-.95-.17-1.9-.27-2.85l-.29-2.85c-.1-.95-.29-1.89-.43-2.83-.33-1.88-.54-3.78-.85-5.67-.2-1.91-1.06-3.69-1.35-5.58l-1.31-5.58c-.43-1.86-1.01-3.68-1.45-5.54-.17-.94-.39-1.87-.58-2.8-.19-.94-.4-1.87-.67-2.78-.5-1.84-1.13-3.65-1.58-5.5-.69-3.78-2.25-7.3-3.53-10.89-.22-.61.1-1.29.71-1.51.61-.22 1.29.1 1.51.71v.01l.01.02c.62 1.82 1.28 3.64 1.87 5.47.28.92.59 1.83.89 2.75.3.91.72 1.79 1.04 2.71 1.09 3.7 1.82 7.49 2.74 11.23.48 3.84 1.68 7.51 2.56 11.27.18.95.46 1.87.42 2.86.01.49 0 .98.1 1.45l.32 1.41c.44 1.88 1.04 3.73 1.32 5.64.08.96.05 1.94.21 2.89l.45 2.86c.1.96.23 1.92.28 2.88.06.96.08 1.93.28 2.88.51 1.89.44 3.84.36 5.77.01.48-.02.97 0 1.45.03.48.09.96.09 1.44-.01.97-.07 1.93-.12 2.9-.13 1.93-.07 3.85.07 5.78.09 1.92.16 3.86.16 5.79-.08 1.93-.56 3.83-.38 5.78.01.97-.12 1.93-.17 2.9-.07.97-.14 1.93-.24 2.89-.06.65-.64 1.12-1.29 1.06-.65-.06-1.12-.63-1.06-1.28l.05-.11zm-3.69 30.85l-.46-3.8c.06-1.31-.64-2.48-1.02-3.69-.71-2.44-1.17-4.95-2.02-7.36-.2-.61-.41-1.21-.64-1.8-.2-.61-.4-1.22-.63-1.81-.45-1.2-.93-2.39-1.4-3.58-.24-.6-.56-1.15-.89-1.71-.34-.55-.6-1.13-.92-1.69-.31-.56-.61-1.13-.93-1.69-.34-.55-.74-1.05-1.11-1.57-.41-.5-.74-1.05-1.11-1.58-.38-.52-.76-1.01-1.16-1.51-.43-.47-.86-.94-1.41-1.28-.57-.32-1.02-.76-1.51-1.16-1-.78-2.02-1.54-3.07-2.29-1.04-.76-2.16-1.4-3.23-2.16-.52-.39-1.02-.82-1.51-1.26-.5-.43-1.02-.83-1.55-1.23-1.07-.78-2.17-1.56-3.09-2.55-.84-1.06-1.75-2.06-2.65-3.08-.44-.52-.84-1.08-1.26-1.62-.38-.57-.73-1.16-1.1-1.75-.34-.55-.18-1.28.37-1.62s1.28-.18 1.62.37c0 .01.01.02.01.02l.11.19.93 1.58c.37.49.69 1 1.07 1.48.4.47.78.95 1.22 1.38.46.42.94.8 1.45 1.16.95.79 1.82 1.69 2.78 2.53.47.43.97.83 1.48 1.21l1.54 1.18c1.85 1.87 4.23 3.07 6.34 4.76.5.45 1.07.84 1.41 1.46.18.3.34.62.58.85.24.24.5.46.74.7.47.49 1.01.94 1.49 1.42.24.24.45.49.67.75.22.25.44.51.62.79.56 1.23 1.33 2.31 2.07 3.42.33.58.68 1.15.97 1.75.29.6.51 1.23.91 1.77.9 1.03 1.29 2.34 1.61 3.64.09.32.19.64.31.95.13.3.29.6.39.91.21.63.33 1.29.46 1.95.27 1.3.73 2.53 1.2 3.77.45 1.24.93 2.48 1.25 3.76.3 1.29.19 2.65.72 3.9.3 1.29.53 2.6.69 3.91.08.65-.38 1.24-1.03 1.31-.65.08-1.24-.38-1.31-1.03v-.05zM335 176.91l-11.29-.01c-3.76-.01-7.53.02-11.29-.08-7.53-.11-15.05.41-22.58.35-3.76 0-7.53.05-11.29.01l-11.34-.09c-1.08-.05-2.14-.26-3.15-.62-.51-.18-1-.4-1.47-.65s-.94-.56-1.31-.81c-1.48-1-3.08-1.83-4.75-2.49l-5.27-1.97-5.27-2.03c-6.99-2.71-14.02-5.35-21.34-6.45-3.64-.55-7.35-.7-10.95-.09-1.74.25-3.29 1.12-4.83 2.14-1.54 1.01-3.03 2.24-4.82 3.09-1.73.92-3.61 1.53-5.5 1.94-1.89.42-3.81.64-5.71.74-3.81.23-7.58.03-11.31.25-3.74.15-7.37.73-10.91 1.86-3.54 1.12-6.95 2.66-10.32 4.31-.09.04-.19.07-.29.07-3.02.01-6.04-.06-9.06.02l-9.06.23-18.13.12-18.13.15-9.06.06-9.06-.11c-12.09-.24-24.17.2-36.26-.11-6.04-.17-12.09-.01-18.13 0l-18.12.17c-.65.01-1.19-.52-1.19-1.17-.01-.65.52-1.19 1.17-1.19H15l18.13-.07c6.04-.05 12.09.02 18.13-.16 12.09-.32 24.17.13 36.26.11l9.06.04 9.06.16c6.04.13 12.09-.03 18.13-.07l18.13-.18c3.02-.04 6.04.21 9.06.28 1.51.04 3.02 0 4.53-.03l4.53-.09-.52.12c3.36-1.73 6.81-3.42 10.47-4.69 1.84-.6 3.72-1.22 5.67-1.46 1.95-.31 3.88-.41 5.8-.46 3.83-.04 7.59.03 11.25-.24 1.83-.13 3.63-.38 5.37-.77 1.74-.39 3.43-.95 4.97-1.78 1.55-.77 3.03-1.87 4.66-2.92.82-.52 1.67-1.05 2.61-1.48.92-.44 1.99-.77 2.99-.95 3.86-.79 7.84-.88 11.67-.31 3.83.61 7.54 1.63 11.14 2.85 3.58 1.28 7.18 2.45 10.69 3.86 3.5 1.44 6.93 2.86 10.49 4.22 1.79.74 3.49 1.69 5.1 2.75 1.48 1.04 3.14 1.61 4.89 1.67 7.47-.02 15.04-.2 22.55-.27 7.53-.14 15.05.24 22.58.08 3.76-.12 7.53-.12 11.29-.15l11.29-.08c.65 0 1.18.52 1.19 1.17 0 .65-.52 1.18-1.17 1.19v.02z"/><path fill="none" stroke="#A099FF" stroke-width="2" stroke-linecap="round" stroke-miterlimit="10" d="M87.45 124.83h18.99m-18.99 4.42h13.77"/><path fill="#0B0D2A" d="M125.56 92.59c-3.86 1.17-7.73 2.29-11.65 3.23-1.97.44-3.93.9-5.89 1.37-.99.21-1.95.5-2.92.79l-2.9.85c-3.85 1.2-7.76 2.18-11.68 3.11-.98.23-1.94.53-2.92.79l-2.89.91c-.96.31-1.94.55-2.91.82-.97.27-1.94.53-2.93.76-.73.17-1.45-.28-1.63-1.01-.16-.69.23-1.38.9-1.59l.02-.01c3.84-1.24 7.73-2.3 11.65-3.21 3.88-1.08 7.77-2.13 11.71-3.02 1.95-.49 3.93-.9 5.87-1.46l5.81-1.66c1.93-.57 3.91-.97 5.86-1.48.98-.22 1.93-.57 2.9-.85.97-.29 1.93-.59 2.87-.95.7-.27 1.48.09 1.74.78.27.7-.09 1.48-.78 1.74-.03.01-.06.02-.08.03l-.15.06z"/><path fill="none" stroke="#FFF" stroke-miterlimit="10" d="M66.96 142.81l-2.76.9v-7.75m10.43 0v7.75l-2.53-.9"/><path fill="none" stroke="#A099FF" stroke-width="2" stroke-linecap="round" stroke-miterlimit="10" d="M87.68 119.88c6.1-.18 8.89-7.59 5.88-8.98-2.22-1.03-5.57 4.23-.83 7.55 1.7 1.19 4.99 2.02 6.89 1.38 2.74-.92 2.39-4.11.44-4.27"/></svg>